<svg width="34" height="34" fill="none" xmlns="http://www.w3.org/2000/svg"><rect x=".5" y=".5" width="33" height="33" rx="16.5" stroke="#424242"/><path fill-rule="evenodd" clip-rule="evenodd" d="M18.7929 18.2638c-1.4319 1.4319-3.7535 1.4319-5.1854 0-1.432-1.4319-1.432-3.7535 0-5.1855 1.4319-1.4319 3.7535-1.4319 5.1854 0 1.4319 1.432 1.4319 3.7536 0 5.1855zm.4404 1.383c-1.9602 1.4994-4.7758 1.3526-6.5686-.4402-1.9527-1.9526-1.9527-5.1184 0-7.0711 1.9526-1.9526 5.1184-1.9526 7.071 0 1.7928 1.7928 1.9396 4.6082.4404 6.5684l3.5667 3.5667-.9428.9428-3.5667-3.5666z" fill="#fff"/></svg>